<svg id="Layer_1" data-name="Layer 1" xmlns="http://www.w3.org/2000/svg" viewBox="0 0 489.9 275.8"><defs><style>.cls-1{fill:#3498db;}</style></defs><title>selected_people</title><path class="cls-1" d="M340.6,209.05v37.7a26.91,26.91,0,0,0,7.6,18.7v12.8a9.9,9.9,0,0,0,19.8,0v-17.4a9.93,9.93,0,0,0-4.4-8.2,7,7,0,0,1-3.2-5.9v-37.7a24.07,24.07,0,0,1,24-24h8.1a24.07,24.07,0,0,1,24,24v37.7a7,7,0,0,1-3.2,5.9,9.68,9.68,0,0,0-4.4,8.2v36.3a11.69,11.69,0,0,0,6.5,10.4,288.94,288.94,0,0,1,51.7,33.1,8.37,8.37,0,0,1,3,6.5V363H400.7a9.9,9.9,0,0,0,0,19.8H480a9.86,9.86,0,0,0,9.9-9.9v-25.8a27.94,27.94,0,0,0-10.3-21.8c-19.9-16.3-41.2-28.2-50.9-33.3v-26.7a26.91,26.91,0,0,0,7.6-18.7V209a43.85,43.85,0,0,0-43.8-43.8h-8.1A44,44,0,0,0,340.6,209.05Z" transform="translate(0 -107.05)"/><path class="cls-1" d="M9.9,382.85H90.4a9.9,9.9,0,1,0,0-19.8H19.8v-15.9a8.52,8.52,0,0,1,3-6.5,279.41,279.41,0,0,1,51.7-33.1,11.51,11.51,0,0,0,6.5-10.4v-36.3a9.93,9.93,0,0,0-4.4-8.2,7,7,0,0,1-3.2-5.9v-37.7a24.07,24.07,0,0,1,24-24h8.1a24.07,24.07,0,0,1,24,24v37.7a7,7,0,0,1-3.2,5.9,9.68,9.68,0,0,0-4.4,8.2v18.2a9.9,9.9,0,0,0,19.8,0v-13.6a26.91,26.91,0,0,0,7.6-18.7v-37.7a43.85,43.85,0,0,0-43.8-43.8H97.4a43.85,43.85,0,0,0-43.8,43.8v37.7a26.91,26.91,0,0,0,7.6,18.7v26.7c-9.8,5.1-31,16.9-50.9,33.3A28.26,28.26,0,0,0,0,347.25V373A9.86,9.86,0,0,0,9.9,382.85Z" transform="translate(0 -107.05)"/><path class="cls-1" d="M304.4,209.55v-48.7a53.82,53.82,0,0,0-53.8-53.8H240.1a53.82,53.82,0,0,0-53.8,53.8v48.7a31.91,31.91,0,0,0,9.8,23V270c-11.7,6-40.3,21.6-67,43.6a33.27,33.27,0,0,0-12.2,25.9v33.4a9.86,9.86,0,0,0,9.9,9.9h237a9.86,9.86,0,0,0,9.9-9.9v-33.4a33.27,33.27,0,0,0-12.2-25.9c-26.7-21.9-55.3-37.6-67-43.6v-37.5A31.44,31.44,0,0,0,304.4,209.55ZM349,329a13.62,13.62,0,0,1,5,10.6v23.5H136.8v-23.5a13.62,13.62,0,0,1,5-10.6c29.4-24.2,61.3-40.3,67.4-43.3a12.21,12.21,0,0,0,6.8-10.8v-47a9.93,9.93,0,0,0-4.4-8.2,12,12,0,0,1-5.4-10V161a34,34,0,0,1,34-34h10.5a34,34,0,0,1,34,34v48.7a11.91,11.91,0,0,1-5.4,10,9.68,9.68,0,0,0-4.4,8.2v47a12.09,12.09,0,0,0,6.8,10.8C287.7,288.65,319.6,304.85,349,329Z" transform="translate(0 -107.05)"/></svg>