<svg id="Capa_1" data-name="Capa 1" xmlns="http://www.w3.org/2000/svg" viewBox="0 0 60 49"><defs><style>.cls-1{fill:#969faa;}</style></defs><title>unselected_projects</title><path class="cls-1" d="M57.49,21.5H54V15.23a2.74,2.74,0,0,0-2.73-2.73H26.51l-5-7H2.73A2.74,2.74,0,0,0,0,8.23V51.92H0A2.55,2.55,0,0,0,2.57,54.5H47.32a2.54,2.54,0,0,0,2.45-1.81L60,24.65V24.47C60,22.75,58.94,21.5,57.49,21.5ZM2,8.23A0.73,0.73,0,0,1,2.73,7.5H20.49l5,7H51.27a0.73,0.73,0,0,1,.73.73V21.5H12.73a2.56,2.56,0,0,0-2.45,1.81L2,45.9V8.23ZM47.87,52.08a0.57,0.57,0,0,1-.54.42H2.57a0.55,0.55,0,0,1-.45-0.22A0.54,0.54,0,0,1,2,51.87l10.19-28a0.57,0.57,0,0,1,.55-0.42H57.49a0.77,0.77,0,0,1,.5.82Z" transform="translate(0 -5.5)"/></svg>