<svg id="Capa_1" data-name="Capa 1" xmlns="http://www.w3.org/2000/svg" viewBox="0 0 372 332.8"><defs><style>.cls-1{fill:#969faa;}</style></defs><title>unselected_charts</title><path class="cls-1" d="M320,19.6H52c-25.12,0-52,13.68-52,52V251.28c0,38.32,26.88,52,52,52h99.2V336.4H134.72a8,8,0,0,0,0,16h105.6a8,8,0,1,0,0-16H220.8V303.28H320c38.32,0,52-26.88,52-52V71.6C372,33.28,345.12,19.6,320,19.6ZM204.8,336.4H167.2V303.28h37.6V336.4h0ZM356,251.28c0,10.8-3.52,36-36,36H52c-10.8,0-36-3.52-36-36V239.84H356v11.44Zm0-27.36H16v-152c0-32.48,25.2-36,36-36H320c10.8,0,36,3.52,36,36v152Z" transform="translate(0 -19.6)"/><path class="cls-1" d="M315.69,57.36a8,8,0,0,0-11.2,1.59h0.39L245.2,139l-28-36.4a8,8,0,0,0-12.32-.4L159.28,154,125.84,96.88a8,8,0,0,0-13.68-.08L57,186a8,8,0,1,0,13.6,8l48-78.24,32,55.12a8,8,0,0,0,12.88,1.28L210,120.08l28.56,37.12a9.28,9.28,0,0,0,6.4,3.12,8,8,0,0,0,6.32-3.2l66-88.56A8,8,0,0,0,315.69,57.36Z" transform="translate(0 -19.6)"/></svg>